<?xml version="1.0" standalone="no"?>
<!DOCTYPE svg PUBLIC "-//W3C//DTD SVG 20010904//EN"
 "http://www.w3.org/TR/2001/REC-SVG-20010904/DTD/svg10.dtd">
<svg version="1.0" xmlns="http://www.w3.org/2000/svg"
 width="180.000000pt" height="180.000000pt" viewBox="0 0 180.000000 180.000000"
 preserveAspectRatio="xMidYMid meet">

<g transform="translate(0.000000,180.000000) scale(0.100000,-0.100000)"
fill="#000000" stroke="none">
<path d="M0 900 l0 -900 900 0 900 0 0 900 0 900 -900 0 -900 0 0 -900z m940
488 c0 -18 -15 -87 -34 -153 l-33 -120 -72 -3 -71 -3 0 61 0 60 -55 0 -55 0 0
-100 0 -100 90 0 90 0 0 -70 0 -70 -90 0 -90 0 0 -100 0 -100 45 0 45 0 0 -95
0 -95 -240 0 -240 0 0 95 0 95 30 0 30 0 -2 268 -3 267 -27 3 -28 3 0 95 0 94
355 0 355 0 0 -32z m584 -290 c126 -456 113 -418 141 -418 25 0 25 -1 25 -95
l0 -95 -235 0 -235 0 0 95 0 95 36 0 36 0 -7 43 c-4 23 -9 45 -12 50 -2 4 -40
7 -83 7 -87 0 -86 1 -93 -70 -2 -22 3 -25 31 -28 l32 -3 0 -95 0 -94 -200 0
-200 0 0 94 c0 89 1 95 21 98 19 3 32 40 118 353 53 193 100 358 104 368 6 15
26 17 220 17 l213 0 88 -322z"/>
<path d="M1162 1037 c-12 -57 -22 -109 -22 -115 0 -8 19 -12 50 -12 59 0 57
-7 30 125 -11 53 -20 99 -20 101 0 2 -4 4 -8 4 -5 0 -18 -47 -30 -103z"/>
</g>
</svg>
